<svg xmlns="http://www.w3.org/2000/svg" viewBox="0 0 992 996" width="992" height="996"><defs><clipPath clipPathUnits="userSpaceOnUse" id="cp1"><path d="M-204 1248L2796 1248L2796 -252L-204 -252L-204 1248Z" /></clipPath></defs><style>tspan { white-space:pre }.shp0 { fill: #000000 } </style><g id="g46"><g id="Clip-Path: g48" clip-path="url(#cp1)"><g id="g48"><g id="g54"><path id="path56" fill-rule="evenodd" class="shp0" d="M687.9 43.77C746.6 68.6 799.32 104.14 844.59 149.41C889.85 194.68 925.4 247.4 950.23 306.1C975.94 366.9 988.98 431.46 988.98 498C988.98 564.54 975.94 629.1 950.23 689.9C925.4 748.6 889.85 801.32 844.59 846.59C799.32 891.85 746.6 927.4 687.9 952.23C627.1 977.94 562.54 990.98 496 990.98C429.46 990.98 364.89 977.94 304.1 952.23C245.39 927.4 192.68 891.85 147.41 846.59C102.14 801.32 66.6 748.6 41.77 689.9C16.06 629.1 3.02 564.54 3.02 498C3.02 431.46 16.06 366.9 41.77 306.1C66.6 247.4 102.14 194.68 147.41 149.41C192.68 104.14 245.39 68.6 304.1 43.77C364.89 18.06 429.46 5.02 496 5.02C562.54 5.02 627.1 18.06 687.9 43.77ZM668.03 905.26C720.66 883 767.93 851.13 808.52 810.53C849.12 769.93 881 722.66 903.26 670.03C926.3 615.56 937.98 557.68 937.98 498C937.98 438.32 926.3 380.44 903.26 325.97C881 273.34 849.12 226.07 808.52 185.47C767.93 144.87 720.66 113 668.03 90.74C613.56 67.7 555.68 56.02 496 56.02C436.32 56.02 378.44 67.7 323.97 90.74C271.34 113 224.07 144.87 183.47 185.47C142.87 226.07 111 273.34 88.74 325.97C65.7 380.44 54.02 438.32 54.02 498C54.02 557.68 65.7 615.56 88.74 670.03C111 722.66 142.87 769.93 183.47 810.53C224.07 851.13 271.34 883 323.97 905.26C378.44 928.3 436.32 939.98 496 939.98C555.68 939.98 613.56 928.3 668.03 905.26Z" /></g><g id="g58"><path id="path60" fill-rule="evenodd" class="shp0" d="M603.5 297.99C603.5 349 644.99 390.49 696 390.49C755.27 390.49 803.5 438.72 803.5 497.99C803.5 557.27 755.27 605.49 696 605.49C644.99 605.49 603.5 646.99 603.5 697.99C603.5 757.27 555.27 805.49 496 805.49C436.72 805.49 388.5 757.27 388.5 697.99C388.5 646.99 347 605.49 296 605.49C236.72 605.49 188.5 557.27 188.5 497.99C188.5 438.72 236.72 390.49 296 390.49C347 390.49 388.5 349 388.5 297.99C388.5 238.72 436.72 190.49 496 190.49C555.27 190.49 603.5 238.72 603.5 297.99ZM588.5 697.99C588.5 638.72 636.72 590.49 696 590.49C747 590.49 788.5 549 788.5 497.99C788.5 446.99 747 405.49 696 405.49C636.72 405.49 588.5 357.27 588.5 297.99C588.5 246.99 547 205.49 496 205.49C444.99 205.49 403.5 246.99 403.5 297.99C403.5 357.27 355.27 405.49 296 405.49C244.99 405.49 203.5 446.99 203.5 497.99C203.5 549 244.99 590.49 296 590.49C355.27 590.49 403.5 638.72 403.5 697.99C403.5 749 444.99 790.49 496 790.49C547 790.49 588.5 749 588.5 697.99Z" /></g><g id="g62"><path id="path64" fill-rule="evenodd" class="shp0" d="M637.42 241.57C668.14 241.57 697.02 253.53 718.74 275.25C763.58 320.09 763.58 393.05 718.74 437.89C702.68 453.94 693.84 475.29 693.84 497.99C693.84 520.7 702.68 542.04 718.74 558.1C740.46 579.82 752.42 608.7 752.42 639.41C752.42 670.13 740.46 699.01 718.74 720.73C673.9 765.57 600.94 765.57 556.1 720.73C522.96 687.59 469.04 687.59 435.89 720.73C414.17 742.45 385.29 754.41 354.58 754.41C323.86 754.41 294.98 742.45 273.26 720.73C228.42 675.89 228.42 602.93 273.26 558.1C289.31 542.04 298.16 520.7 298.16 497.99C298.16 475.29 289.31 453.94 273.26 437.89C251.54 416.17 239.58 387.29 239.58 356.57C239.58 325.85 251.54 296.97 273.26 275.25C294.98 253.53 323.86 241.57 354.58 241.57C385.29 241.57 414.17 253.53 435.89 275.25C469.04 308.39 522.96 308.39 556.1 275.25C577.82 253.53 606.7 241.57 637.42 241.57ZM414.68 296.47C398.63 280.41 377.28 271.57 354.58 271.57C331.87 271.57 310.53 280.41 294.47 296.47C278.42 312.52 269.58 333.87 269.58 356.57C269.58 379.27 278.42 400.62 294.47 416.67C316.19 438.4 328.16 467.28 328.16 497.99C328.16 528.71 316.19 557.59 294.47 579.31C261.33 612.45 261.33 666.38 294.47 699.52C310.53 715.57 331.87 724.41 354.58 724.41C377.28 724.41 398.63 715.57 414.68 699.52C459.52 654.68 532.48 654.68 577.31 699.52C610.46 732.66 664.38 732.66 697.52 699.52C713.58 683.46 722.42 662.12 722.42 639.41C722.42 616.71 713.58 595.36 697.52 579.31C675.8 557.59 663.84 528.71 663.84 497.99C663.84 467.28 675.8 438.4 697.52 416.67C730.67 383.53 730.67 329.61 697.52 296.47C681.47 280.41 660.12 271.57 637.42 271.57C614.72 271.57 593.37 280.41 577.31 296.47C554.9 318.89 525.45 330.1 496 330.1C466.55 330.1 437.1 318.89 414.68 296.47Z" /></g></g></g></g></svg>