<svg xmlns="http://www.w3.org/2000/svg" viewBox="0 0 496 447" width="496" height="447"><style>tspan { white-space:pre }.shp0 { fill: #000000 } </style><g id="Layer"><path id="Layer" fill-rule="evenodd" class="shp0" d="M391.8 305.8C406.3 369.2 400 419.7 371.9 435.9C365.3 439.7 357.7 441.5 349.3 441.5C321.8 441.5 285.8 422.1 249.4 388.3C213 422.3 177 441.9 149.5 441.9C141.1 441.9 133.5 440.1 127 436.3C98.8 420.1 92.4 369.5 106.8 305.9C44.4 286.8 3.7 256 3.7 223.5C3.7 191.1 44.2 160.4 106.4 141.2C91.9 77.8 98.2 27.3 126.3 11.1C132.9 7.3 140.5 5.5 148.9 5.5L148.9 5.4C176.4 5.4 212.4 24.8 248.8 58.6C285.2 24.6 321.2 5 348.7 5L348.7 5.1C356.96 5.11 364.53 6.92 371 10.7C399.2 26.9 405.6 77.5 391.2 141.1C453.6 160.2 494.3 191 494.3 223.5C494.3 255.9 453.8 286.7 391.8 305.8ZM348.6 5.1L348.6 27.3C348.63 27.3 348.67 27.3 348.7 27.3L348.7 5.1C348.67 5.1 348.63 5.1 348.6 5.1ZM348.6 27.3C327.8 27.35 297.25 43.95 264.7 74.2C278.8 88.9 292.8 105.7 306.3 124.2C328.8 126.6 350.2 130.3 369.8 135.1C372 125 373.8 115.1 374.9 105.7C379.5 67.5 373.6 37.8 360 30C356.9 28.3 353.2 27.4 348.6 27.4L348.6 27.3ZM148.9 27.7L148.9 27.8C144.3 27.8 140.4 28.6 137.4 30.4C123.9 38.3 118.1 68 122.8 106.2C124 115.5 125.7 125.2 128 135.2C147.6 130.3 169 126.6 191.6 124.2C204.9 105.7 218.9 89 232.9 74.3C200.3 44.2 169.6 27.7 148.9 27.7ZM323.1 148.9C328 156.5 332.9 164.3 337.5 172.3C342.2 180.3 346.5 188.3 350.6 196.3C355.8 183 360.4 169.7 364.1 156.8C351 153.6 337.3 151 323.1 148.9ZM339 223.4C332.7 210 325.8 196.7 318.2 183.6C310.4 170.2 302.3 157.5 294 145.6C279.2 144.4 264.1 143.7 249 143.7C233.8 143.7 218.7 144.4 203.8 145.7C195.5 157.6 187.5 170.4 179.7 183.9C172.2 197 165.2 210.4 159 223.8C165.3 237.2 172.2 250.5 179.8 263.6C187.6 277 195.7 289.7 204 301.6C218.8 302.8 233.9 303.5 249 303.5C264.2 303.5 279.3 302.8 294.2 301.5C302.5 289.6 310.5 276.8 318.3 263.3C325.8 250.2 332.7 236.8 339 223.4ZM337.6 274.4C333 282.5 328.1 290.4 323.2 298.1C337.5 296 351.3 293.3 364.4 290.1C360.6 277.1 356 263.7 350.6 250.3C346.5 258.3 342.2 266.4 337.6 274.4ZM276.7 325C267.6 325.5 258.3 325.7 248.9 325.7C239.6 325.7 230.4 325.4 221.4 325C230.6 336.7 239.9 347.4 249.2 357C258.4 347.4 267.7 336.7 276.7 325ZM160.4 274.7C155.7 266.7 151.4 258.7 147.3 250.7C142.1 264 137.5 277.3 133.8 290.2C146.9 293.4 160.6 296 174.8 298.1C169.9 290.5 165.1 282.7 160.4 274.7ZM221.2 122C230.3 121.5 239.6 121.3 249 121.3C258.3 121.3 267.5 121.6 276.5 122C267.3 110.3 258 99.6 248.7 90C239.5 99.6 230.2 110.3 221.2 122ZM133.5 156.8C137.3 169.8 141.9 183.2 147.3 196.6C151.4 188.6 155.7 180.6 160.3 172.6C164.9 164.5 169.8 156.6 174.7 148.9C160.4 151 146.6 153.7 133.5 156.8ZM112.2 284.3C117.8 264.8 125.2 244.5 134.4 223.7C125.1 202.8 117.6 182.4 111.9 162.8C102.2 165.9 92.8 169.2 84.2 172.9C48.8 187.9 25.9 207.8 25.9 223.5C25.9 239.2 48.8 259 84.2 274.1C92.9 277.8 102.3 281.2 112.2 284.3ZM149.3 419.7C170.1 419.7 200.7 403.1 233.3 372.8C219.2 358.1 205.2 341.3 191.7 322.8C169.2 320.4 147.8 316.7 128.2 311.9C126 322 124.2 331.9 123.1 341.3C118.5 379.5 124.4 409.2 138 417C141 418.7 144.8 419.6 149.3 419.7ZM370 311.7C350.4 316.6 329 320.3 306.4 322.7C293.1 341.2 279.1 357.9 265.1 372.6C297.7 402.7 328.4 419.2 349.1 419.2C353.7 419.2 357.6 418.4 360.6 416.6C374.1 408.7 379.9 379 375.2 340.8C374.1 331.5 372.3 321.8 370 311.7ZM472.1 223.5C472.1 207.8 449.2 188 413.8 172.9C405 169.2 395.6 165.8 385.7 162.7C380.1 182.2 372.7 202.5 363.5 223.3C372.8 244.2 380.3 264.6 386 284.2C395.7 281.1 405.1 277.8 413.7 274.1C449.1 259.1 472 239.2 472.1 223.5Z" /><path id="Layer" class="shp0" d="M148.8 5.4L148.8 5.4L148.8 5.4L148.8 5.4Z" /><path id="Layer" class="shp0" d="M248.9 269.2C223.63 269.2 203.2 248.77 203.2 223.5C203.2 198.23 223.63 177.8 248.9 177.8C274.17 177.8 294.6 198.23 294.6 223.5C294.6 248.77 274.17 269.2 248.9 269.2Z" /><path id="Layer" class="shp0" d="M348.5 5.1L348.5 5.1L348.5 5.1L348.5 5.1Z" /></g></svg>